<?xml version="1.0" encoding="UTF-8" standalone="no"?>
<!-- Created with Inkscape (http://www.inkscape.org/) -->

<svg
   xmlns:dc="http://purl.org/dc/elements/1.1/"
   xmlns:cc="http://creativecommons.org/ns#"
   xmlns:rdf="http://www.w3.org/1999/02/22-rdf-syntax-ns#"
   xmlns:svg="http://www.w3.org/2000/svg"
   xmlns="http://www.w3.org/2000/svg"
   xmlns:sodipodi="http://sodipodi.sourceforge.net/DTD/sodipodi-0.dtd"
   xmlns:inkscape="http://www.inkscape.org/namespaces/inkscape"
   width="90"
   height="380"
   viewBox="0 0 23.812501 100.54167"
   version="1.1"
   id="svg8"
   inkscape:version="0.92.4 5da689c313, 2019-01-14"
   sodipodi:docname="PhraseTrigger2.svg">
  <defs
     id="defs2" />
  <sodipodi:namedview
     id="base"
     pagecolor="#ffffff"
     bordercolor="#666666"
     borderopacity="1.0"
     inkscape:pageopacity="0.0"
     inkscape:pageshadow="2"
     inkscape:zoom="1.4"
     inkscape:cx="-115.80509"
     inkscape:cy="170.63765"
     inkscape:document-units="mm"
     inkscape:current-layer="layer2"
     showgrid="false"
     units="px"
     inkscape:snap-bbox="true"
     inkscape:snap-page="true"
     inkscape:bbox-nodes="true"
     inkscape:snap-bbox-edge-midpoints="true"
     inkscape:window-width="1920"
     inkscape:window-height="1020"
     inkscape:window-x="0"
     inkscape:window-y="0"
     inkscape:window-maximized="1"
     objecttolerance="5" />
  <metadata
     id="metadata5">
    <rdf:RDF>
      <cc:Work
         rdf:about="">
        <dc:format>image/svg+xml</dc:format>
        <dc:type
           rdf:resource="http://purl.org/dc/dcmitype/StillImage" />
        <dc:title></dc:title>
      </cc:Work>
    </rdf:RDF>
  </metadata>
  <g
     inkscape:label="Layer 1"
     inkscape:groupmode="layer"
     id="layer1"
     transform="translate(0,-196.45832)">
    <path
       style="opacity:1;vector-effect:none;fill:#f0f0f0;fill-opacity:1;fill-rule:evenodd;stroke:none;stroke-width:0.48607069;stroke-linecap:butt;stroke-linejoin:round;stroke-miterlimit:4;stroke-dasharray:none;stroke-dashoffset:0;stroke-opacity:1;paint-order:normal"
       d="M 0,196.45832 H 23.8125 V 297 H 0 Z"
       id="rect817"
       inkscape:connector-curvature="0" />
    <text
       xml:space="preserve"
       style="font-style:normal;font-weight:normal;font-size:10.58333302px;line-height:1.25;font-family:sans-serif;letter-spacing:0px;word-spacing:0px;fill:#000000;fill-opacity:1;stroke:none;stroke-width:0.26458332"
       x="7.7485113"
       y="204.01784"
       id="text30"><tspan
         sodipodi:role="line"
         id="tspan28"
         x="7.7485113"
         y="213.38161"
         style="stroke-width:0.26458332"></tspan></text>
  </g>
  <g
     inkscape:groupmode="layer"
     id="layer2"
     inkscape:label="Clock Input">
    <g
       aria-label="Clock Input"
       style="font-style:normal;font-variant:normal;font-weight:normal;font-stretch:normal;font-size:3.17499995px;line-height:1.25;font-family:sans-serif;-inkscape-font-specification:'sans-serif, Normal';font-variant-ligatures:normal;font-variant-caps:normal;font-variant-numeric:normal;font-feature-settings:normal;text-align:start;letter-spacing:0px;word-spacing:0px;writing-mode:lr-tb;text-anchor:start;fill:#000000;fill-opacity:1;stroke:none;stroke-width:0.26458332"
       id="text3767">
      <path
         sodipodi:type="inkscape:offset"
         inkscape:radius="0"
         inkscape:original="M 5.3046875 3.6347656 L 5.3046875 6.046875 L 5.5898438 6.046875 L 5.5898438 3.6347656 L 5.3046875 3.6347656 z M 9.8652344 3.6347656 L 9.8652344 6.046875 L 10.152344 6.046875 L 10.152344 5.1992188 L 11.033203 6.046875 L 11.40625 6.046875 L 10.445312 5.1230469 L 11.367188 4.3105469 L 11.001953 4.3105469 L 10.152344 5.0605469 L 10.152344 3.6347656 L 9.8652344 3.6347656 z M 4.09375 3.6914062 C 3.7433838 3.6914062 3.4691162 3.7986979 3.2675781 4.0136719 C 3.0660401 4.2276123 2.9648438 4.5205078 2.9648438 4.8925781 C 2.9648437 5.2636149 3.0660401 5.5565104 3.2675781 5.7714844 C 3.4691162 5.9854248 3.7433838 6.0917969 4.09375 6.0917969 C 4.2301758 6.0917969 4.3604655 6.074316 4.4824219 6.0371094 C 4.6054117 5.9999023 4.7205241 5.9435546 4.8300781 5.8691406 L 4.8300781 5.5429688 C 4.7246582 5.6411538 4.6120768 5.7131427 4.4921875 5.7617188 C 4.3733317 5.8102948 4.2476399 5.8359375 4.1132812 5.8359375 C 3.8486979 5.8359375 3.6464193 5.7549805 3.5058594 5.59375 C 3.3652995 5.431486 3.2949219 5.1974691 3.2949219 4.8925781 C 3.2949219 4.5866537 3.3652995 4.3526367 3.5058594 4.1914062 C 3.6464193 4.0291422 3.8486979 3.9492187 4.1132812 3.9492188 C 4.2476399 3.9492188 4.3733317 3.9729085 4.4921875 4.0214844 C 4.6120768 4.0700602 4.7246582 4.1440022 4.8300781 4.2421875 L 4.8300781 3.9121094 C 4.7225911 3.8387285 4.6073649 3.7822671 4.484375 3.7460938 C 4.3624186 3.7088864 4.2322429 3.6914062 4.09375 3.6914062 z M 12.740234 3.7324219 L 12.740234 6.046875 L 13.052734 6.046875 L 13.052734 3.7324219 L 12.740234 3.7324219 z M 19.705078 3.8183594 L 19.705078 4.3105469 L 19.496094 4.3105469 L 19.496094 4.5332031 L 19.705078 4.5332031 L 19.705078 5.4746094 C 19.705078 5.6916504 19.748315 5.843099 19.832031 5.9257812 C 19.915747 6.00743 20.066968 6.046875 20.287109 6.046875 L 20.580078 6.046875 L 20.580078 5.8085938 L 20.287109 5.8085938 C 20.168253 5.8085938 20.090055 5.7883542 20.050781 5.7480469 C 20.012541 5.7077393 19.992188 5.6162028 19.992188 5.4746094 L 19.992188 4.5332031 L 20.580078 4.5332031 L 20.580078 4.3105469 L 19.992188 4.3105469 L 19.992188 3.8183594 L 19.705078 3.8183594 z M 6.859375 4.2695312 C 6.6102946 4.2695312 6.4150309 4.3504883 6.2734375 4.5117188 C 6.1328776 4.6729492 6.0625 4.8963867 6.0625 5.1816406 C 6.0625 5.465861 6.1328776 5.6892985 6.2734375 5.8515625 C 6.4150309 6.012793 6.6102946 6.0917969 6.859375 6.0917969 C 7.1074219 6.0917969 7.3017659 6.012793 7.4433594 5.8515625 C 7.5849528 5.6892985 7.65625 5.465861 7.65625 5.1816406 C 7.65625 4.8963867 7.5849528 4.6729492 7.4433594 4.5117188 C 7.3017659 4.3504883 7.1074219 4.2695312 6.859375 4.2695312 z M 8.875 4.2695312 C 8.6042155 4.2695312 8.3923909 4.3514079 8.2363281 4.5136719 C 8.0812988 4.6759359 8.0019531 4.8984538 8.0019531 5.1816406 C 8.0019531 5.4606934 8.0803792 5.6813721 8.234375 5.8457031 C 8.3883707 6.0100341 8.5959391 6.0917969 8.8574219 6.0917969 C 8.95354 6.0917969 9.0441569 6.0830565 9.1289062 6.0644531 C 9.2146891 6.0458498 9.2973714 6.0176761 9.3769531 5.9804688 L 9.3769531 5.7167969 C 9.2963379 5.7612383 9.2144612 5.7956214 9.1328125 5.8183594 C 9.0521973 5.8400634 8.9713542 5.8515625 8.8886719 5.8515625 C 8.7036703 5.8515625 8.5593506 5.79257 8.4570312 5.6757812 C 8.3547119 5.557959 8.3027344 5.393514 8.3027344 5.1816406 C 8.3027344 4.9697672 8.3547119 4.8042887 8.4570312 4.6875 C 8.5593506 4.5696777 8.7036703 4.5117188 8.8886719 4.5117188 C 8.9713542 4.5117188 9.0521973 4.5221842 9.1328125 4.5449219 C 9.2144612 4.5666259 9.2963379 4.6000895 9.3769531 4.6445312 L 9.3769531 4.3789062 C 9.2984049 4.3427326 9.2165283 4.314445 9.1328125 4.296875 C 9.0490967 4.2782717 8.9628499 4.2695312 8.875 4.2695312 z M 14.501953 4.2695312 C 14.38103 4.2695312 14.274658 4.2959796 14.181641 4.3476562 C 14.089657 4.3993327 14.009619 4.4756917 13.941406 4.5800781 L 13.941406 4.3105469 L 13.654297 4.3105469 L 13.654297 6.046875 L 13.941406 6.046875 L 13.941406 5.0664062 C 13.941406 4.8969076 13.985335 4.7622478 14.074219 4.6640625 C 14.163102 4.5658773 14.283504 4.5175781 14.4375 4.5175781 C 14.565656 4.5175781 14.662482 4.5589763 14.726562 4.640625 C 14.790642 4.7222738 14.822266 4.8454346 14.822266 5.0097656 L 14.822266 6.046875 L 15.107422 6.046875 L 15.107422 5 C 15.107422 4.7602211 15.057397 4.578068 14.955078 4.4550781 C 14.852759 4.3310547 14.701424 4.2695312 14.501953 4.2695312 z M 16.511719 4.2695312 C 16.384595 4.2695313 16.273625 4.2950605 16.181641 4.3457031 C 16.090692 4.3953125 16.015025 4.470866 15.955078 4.5742188 L 15.955078 4.3105469 L 15.669922 4.3105469 L 15.669922 6.7089844 L 15.955078 6.7089844 L 15.955078 5.7871094 C 16.015023 5.8904628 16.09069 5.9669355 16.181641 6.0175781 C 16.273625 6.0671875 16.384595 6.0917969 16.511719 6.0917969 C 16.722559 6.0917969 16.89218 6.0092285 17.023438 5.8417969 C 17.15573 5.6743652 17.222656 5.4544922 17.222656 5.1816406 C 17.222656 4.908789 17.155729 4.688916 17.023438 4.5214844 C 16.89218 4.3540527 16.722559 4.2695312 16.511719 4.2695312 z M 17.666016 4.3105469 L 17.666016 5.3632812 C 17.666016 5.6020263 17.71696 5.7822267 17.820312 5.90625 C 17.923665 6.0302734 18.075919 6.0917969 18.275391 6.0917969 C 18.396313 6.0917969 18.502799 6.0682208 18.59375 6.0175781 C 18.685734 5.9659017 18.764738 5.8866699 18.833984 5.78125 L 18.833984 6.046875 L 19.119141 6.046875 L 19.119141 4.3105469 L 18.833984 4.3105469 L 18.833984 5.2949219 C 18.833984 5.4644205 18.789135 5.5990804 18.699219 5.6972656 C 18.610335 5.7954509 18.489933 5.84375 18.335938 5.84375 C 18.207781 5.84375 18.110955 5.8043051 18.046875 5.7226562 C 17.982795 5.639974 17.951172 5.5158936 17.951172 5.3515625 L 17.951172 4.3105469 L 17.666016 4.3105469 z M 16.441406 4.5078125 C 16.592302 4.5078125 16.711092 4.5676107 16.796875 4.6875 C 16.883692 4.8063558 16.925781 4.9718343 16.925781 5.1816406 C 16.925781 5.391447 16.883692 5.555892 16.796875 5.6757812 C 16.711092 5.7946371 16.592302 5.8535156 16.441406 5.8535156 C 16.290511 5.8535156 16.1708 5.794637 16.083984 5.6757812 C 15.998201 5.555892 15.955078 5.391447 15.955078 5.1816406 C 15.955078 4.9718343 15.998201 4.8063558 16.083984 4.6875 C 16.1708 4.5676107 16.290511 4.5078125 16.441406 4.5078125 z M 6.859375 4.5117188 C 7.0113037 4.5117188 7.1318197 4.5724365 7.2207031 4.6933594 C 7.3095866 4.8132487 7.3535156 4.9759684 7.3535156 5.1816406 C 7.3535156 5.3883464 7.3095866 5.5500325 7.2207031 5.6699219 C 7.1318197 5.7898111 7.0113037 5.8515625 6.859375 5.8515625 C 6.7053793 5.8515625 6.5830241 5.7907307 6.4941406 5.671875 C 6.4062907 5.5519857 6.3632813 5.3893799 6.3632812 5.1816406 C 6.3632813 4.9739014 6.4072103 4.810262 6.4960938 4.6914062 C 6.5849772 4.5715169 6.7064128 4.5117188 6.859375 4.5117188 z "
         id="path3791"
         d="M 5.3046875,3.6347656 V 6.046875 H 5.5898438 V 3.6347656 Z m 4.5605469,0 V 6.046875 H 10.152344 V 5.1992188 l 0.880859,0.8476562 h 0.373047 l -0.960938,-0.9238281 0.921876,-0.8125 h -0.365235 l -0.849609,0.75 V 3.6347656 Z M 4.09375,3.6914062 c -0.3503662,0 -0.6246338,0.1072917 -0.8261719,0.3222657 -0.201538,0.2139404 -0.3027343,0.5068359 -0.3027343,0.8789062 -1e-7,0.3710368 0.1011963,0.6639323 0.3027343,0.8789063 0.2015381,0.2139404 0.4758057,0.3203125 0.8261719,0.3203125 0.1364258,0 0.2667155,-0.017481 0.3886719,-0.054687 0.1229898,-0.037207 0.2381022,-0.093555 0.3476562,-0.1679688 V 5.5429688 C 4.7246582,5.6411538 4.6120768,5.7131427 4.4921875,5.7617188 4.3733317,5.8102948 4.2476399,5.8359375 4.1132812,5.8359375 3.8486979,5.8359375 3.6464193,5.7549805 3.5058594,5.59375 3.3652995,5.431486 3.2949219,5.1974691 3.2949219,4.8925781 c 0,-0.3059244 0.070378,-0.5399414 0.2109375,-0.7011719 0.1405599,-0.162264 0.3428385,-0.2421875 0.6074218,-0.2421874 0.1343587,0 0.2600505,0.02369 0.3789063,0.072266 0.1198893,0.048576 0.2324707,0.1225178 0.3378906,0.2207031 V 3.9121094 C 4.7225911,3.8387285 4.6073649,3.7822671 4.484375,3.7460938 4.3624186,3.7088864 4.2322429,3.6914062 4.09375,3.6914062 Z m 8.646484,0.041016 V 6.046875 h 0.3125 V 3.7324219 Z m 6.964844,0.085937 v 0.4921875 h -0.208984 v 0.2226562 h 0.208984 v 0.9414063 c 0,0.217041 0.04324,0.3684896 0.126953,0.4511718 0.08372,0.081649 0.234937,0.1210938 0.455078,0.1210938 h 0.292969 V 5.8085938 h -0.292969 c -0.118856,0 -0.197054,-0.02024 -0.236328,-0.060547 -0.03824,-0.040308 -0.05859,-0.1318441 -0.05859,-0.2734375 V 4.5332031 h 0.58789 V 4.3105469 h -0.58789 V 3.8183594 Z M 6.859375,4.2695312 c -0.2490804,0 -0.4443441,0.080957 -0.5859375,0.2421876 C 6.1328776,4.6729492 6.0625,4.8963867 6.0625,5.1816406 c 0,0.2842204 0.070378,0.5076579 0.2109375,0.6699219 0.1415934,0.1612305 0.3368571,0.2402344 0.5859375,0.2402344 0.2480469,0 0.4423909,-0.079004 0.5839844,-0.2402344 C 7.5849528,5.6892985 7.65625,5.465861 7.65625,5.1816406 7.65625,4.8963867 7.5849528,4.6729492 7.4433594,4.5117188 7.3017659,4.3504883 7.1074219,4.2695312 6.859375,4.2695312 Z m 2.015625,0 c -0.2707845,0 -0.4826091,0.081877 -0.6386719,0.2441407 -0.1550293,0.162264 -0.234375,0.3847819 -0.234375,0.6679687 0,0.2790528 0.078426,0.4997315 0.2324219,0.6640625 0.1539957,0.164331 0.3615641,0.2460938 0.6230469,0.2460938 0.096118,0 0.186735,-0.00874 0.2714843,-0.027344 0.085783,-0.018603 0.1684652,-0.046777 0.2480469,-0.083984 V 5.7167969 c -0.080615,0.044441 -0.1624919,0.078824 -0.2441406,0.1015625 -0.080615,0.021704 -0.1614583,0.033203 -0.2441406,0.033203 -0.1850016,0 -0.3293213,-0.058992 -0.4316407,-0.1757813 C 8.3547119,5.557959 8.3027344,5.393514 8.3027344,5.1816406 c 0,-0.2118734 0.051977,-0.3773519 0.1542968,-0.4941406 0.1023194,-0.1178223 0.2466391,-0.1757812 0.4316407,-0.1757812 0.082682,0 0.1635254,0.010465 0.2441406,0.033203 0.081649,0.021704 0.1635254,0.055168 0.2441406,0.099609 V 4.3789062 C 9.2984049,4.3427326 9.2165283,4.314445 9.1328125,4.296875 9.0490967,4.2782717 8.9628499,4.2695312 8.875,4.2695312 Z m 5.626953,0 c -0.120923,0 -0.227295,0.026448 -0.320312,0.078125 -0.09198,0.051677 -0.172022,0.1280355 -0.240235,0.2324219 V 4.3105469 H 13.654297 V 6.046875 h 0.287109 V 5.0664062 c 0,-0.1694986 0.04393,-0.3041584 0.132813,-0.4023437 0.08888,-0.098185 0.209285,-0.1464844 0.363281,-0.1464844 0.128156,0 0.224982,0.041398 0.289062,0.1230469 0.06408,0.081649 0.0957,0.2048096 0.0957,0.3691406 V 6.046875 h 0.285156 V 5 c 0,-0.2397789 -0.05002,-0.421932 -0.152344,-0.5449219 C 14.852759,4.3310547 14.701424,4.2695312 14.501953,4.2695312 Z m 2.009766,0 c -0.127124,10e-8 -0.238094,0.025529 -0.330078,0.076172 -0.09095,0.049609 -0.166616,0.1251629 -0.226563,0.2285157 V 4.3105469 h -0.285156 v 2.3984375 h 0.285156 v -0.921875 c 0.05994,0.1033534 0.135612,0.1798261 0.226563,0.2304687 0.09198,0.049609 0.202954,0.074219 0.330078,0.074219 0.21084,0 0.380461,-0.082568 0.511719,-0.25 0.132292,-0.1674317 0.199218,-0.3873047 0.199218,-0.6601563 0,-0.2728516 -0.06693,-0.4927246 -0.199218,-0.6601562 C 16.89218,4.3540527 16.722559,4.2695312 16.511719,4.2695312 Z m 1.154297,0.041016 v 1.0527343 c 0,0.2387451 0.05094,0.4189455 0.154296,0.5429688 0.103353,0.1240234 0.255607,0.1855469 0.455079,0.1855469 0.120922,0 0.227408,-0.023576 0.318359,-0.074219 0.09198,-0.051676 0.170988,-0.1309082 0.240234,-0.2363281 v 0.265625 h 0.285157 V 4.3105469 h -0.285157 v 0.984375 c 0,0.1694986 -0.04485,0.3041585 -0.134765,0.4023437 -0.08888,0.098185 -0.209286,0.1464844 -0.363281,0.1464844 -0.128157,0 -0.224983,-0.039445 -0.289063,-0.1210938 -0.06408,-0.082682 -0.0957,-0.2067626 -0.0957,-0.3710937 V 4.3105469 Z m -1.22461,0.1972656 c 0.150896,0 0.269686,0.059798 0.355469,0.1796875 0.08682,0.1188558 0.128906,0.2843343 0.128906,0.4941406 0,0.2098064 -0.04209,0.3742514 -0.128906,0.4941406 -0.08578,0.1188559 -0.204573,0.1777344 -0.355469,0.1777344 -0.150895,0 -0.270606,-0.058879 -0.357422,-0.1777344 -0.08578,-0.1198892 -0.128906,-0.2843342 -0.128906,-0.4941406 0,-0.2098063 0.04312,-0.3752848 0.128906,-0.4941406 0.08682,-0.1198893 0.206527,-0.1796875 0.357422,-0.1796875 z m -9.582031,0.00391 c 0.1519287,0 0.2724447,0.060718 0.3613281,0.1816406 0.088884,0.1198893 0.1328125,0.282609 0.1328125,0.4882812 0,0.2067058 -0.043929,0.3683919 -0.1328125,0.4882813 C 7.1318197,5.7898111 7.0113037,5.8515625 6.859375,5.8515625 6.7053793,5.8515625 6.5830241,5.7907307 6.4941406,5.671875 6.4062907,5.5519857 6.3632813,5.3893799 6.3632812,5.1816406 6.3632813,4.9739014 6.4072103,4.810262 6.4960938,4.6914062 6.5849772,4.5715169 6.7064128,4.5117188 6.859375,4.5117188 Z" />
    </g>
  </g>
</svg>
